<svg xmlns="http://www.w3.org/2000/svg" width="1920" height="480" viewBox="0 0 1920 480" role="img" aria-labelledby="title desc">
  <title id="title">OneMem Discord banner</title>
  <desc id="desc">Wide community banner for OneMem.</desc>
  <rect width="1920" height="480" fill="#171717"/>
  <path d="M84 360c186-96 312-96 498 0s312 96 498 0 312-96 498 0 312 96 498 0" fill="none" stroke="#8f7cff" stroke-width="10" stroke-linecap="round" opacity=".85"/>
  <path d="M84 360c186-96 312-96 498 0s312 96 498 0 312-96 498 0 312 96 498 0" fill="none" stroke="#d4ff5e" stroke-width="3" stroke-linecap="round"/>
  <rect x="110" y="92" width="104" height="104" rx="24" fill="#0a0f18" stroke="#303642"/>
  <path d="M138 137 162 124l24 13v31.6L162 182l-24-13.4z" fill="none" stroke="#d4ff5e" stroke-width="6" stroke-linejoin="round"/>
  <path d="M138 137 162 150l24-13M162 150v32" fill="none" stroke="#8f7cff" stroke-width="6" stroke-linecap="round" stroke-linejoin="round"/>
  <text x="250" y="162" fill="#f8f6f0" font-family="Bricolage Grotesque, Hanken Grotesk, Arial, sans-serif" font-size="78" font-weight="800" letter-spacing="-2">OneMem</text>
  <text x="112" y="252" fill="#f8f6f0" font-family="Hanken Grotesk, Arial, sans-serif" font-size="38" font-weight="800">Portable encrypted memory and verifiable traces for AI agents.</text>
  <text x="112" y="412" fill="#b9b6ad" font-family="JetBrains Mono, SFMono-Regular, Consolas, monospace" font-size="27">Sui + Walrus + Seal</text>
  <text x="1336" y="412" fill="#0090ff" font-family="JetBrains Mono, SFMono-Regular, Consolas, monospace" font-size="27">onememe.xyz</text>
  <text x="1606" y="412" fill="#d4ff5e" font-family="JetBrains Mono, SFMono-Regular, Consolas, monospace" font-size="27">@OneMemAI</text>
</svg>
