<svg xmlns="http://www.w3.org/2000/svg" width="1200" height="630" viewBox="0 0 1200 630" role="img" aria-labelledby="title desc">
  <title id="title">OneMem GitHub OG image</title>
  <desc id="desc">Open graph image for OneMem repository and documentation links.</desc>
  <rect width="1200" height="630" fill="#faf8f5"/>
  <rect x="44" y="44" width="1112" height="542" rx="28" fill="#0a0f18"/>
  <path d="M110 410h190l116 64h198l126-54h204l90 42" fill="none" stroke="#8f7cff" stroke-width="8" stroke-linecap="round" stroke-linejoin="round"/>
  <circle cx="110" cy="410" r="15" fill="#8f7cff"/>
  <circle cx="416" cy="474" r="15" fill="#8f7cff"/>
  <circle cx="740" cy="420" r="15" fill="#8f7cff"/>
  <circle cx="1034" cy="462" r="18" fill="#d4ff5e"/>
  <rect x="96" y="92" width="96" height="96" rx="22" fill="#171717" stroke="#303642"/>
  <path d="M122 134 144 122l22 12v29.6L144 176l-22-12.4z" fill="none" stroke="#d4ff5e" stroke-width="6" stroke-linejoin="round"/>
  <path d="M122 134 144 146l22-12M144 146v30" fill="none" stroke="#8f7cff" stroke-width="6" stroke-linecap="round" stroke-linejoin="round"/>
  <text x="220" y="165" fill="#f8f6f0" font-family="Bricolage Grotesque, Hanken Grotesk, Arial, sans-serif" font-size="78" font-weight="800" letter-spacing="-2">OneMem</text>
  <text x="100" y="276" fill="#f8f6f0" font-family="Bricolage Grotesque, Hanken Grotesk, Arial, sans-serif" font-size="49" font-weight="800">Persistent memory for AI agents.</text>
  <text x="102" y="338" fill="#c9c5bd" font-family="Hanken Grotesk, Arial, sans-serif" font-size="29" font-weight="600">Encrypted on Walrus. Anchored and provable on Sui.</text>
  <text x="100" y="532" fill="#d4ff5e" font-family="JetBrains Mono, SFMono-Regular, Consolas, monospace" font-size="25">onemem.xyz</text>
  <text x="770" y="532" fill="#0090ff" font-family="JetBrains Mono, SFMono-Regular, Consolas, monospace" font-size="25">verify - replay - share</text>
  <text x="976" y="104" fill="#d4ff5e" font-family="JetBrains Mono, SFMono-Regular, Consolas, monospace" font-size="22">x.com/OneMemAI</text>
</svg>
